<svg width="32" height="32" viewBox="0 0 32 32" fill="none" xmlns="http://www.w3.org/2000/svg">
<g clip-path="url(#clip0_80426_80)">
<path d="M25.8662 24.0889C24.8885 24 23.9107 24.3556 23.1107 25.0667C22.1329 26.0444 20.5329 26.0444 19.4662 25.0667C18.5773 24.4444 17.5996 24.0889 16.5329 24.0889C15.4662 24 14.3996 24.3556 13.5996 25.0667C13.0662 25.5111 12.444 25.7778 11.7329 25.7778C11.0218 25.7778 10.3996 25.5111 9.86623 25.0667C8.97734 24.3556 7.91068 24 6.84401 24C5.77734 24 4.71068 24.3556 3.82179 25.0667C3.28846 25.5111 2.48845 25.7778 1.77734 25.7778V27.5556C2.9329 27.6444 4.08845 27.2889 4.97734 26.4889C5.51068 26.0444 6.31068 25.7778 7.02179 25.7778C7.64401 25.7778 8.35512 26.0444 8.88845 26.4889C10.4885 27.9111 12.9773 27.9111 14.6662 26.4889C15.1996 26.0444 15.8218 25.7778 16.5329 25.7778C17.1551 25.7778 17.7773 26.0444 18.3107 26.4889C19.9996 27.9111 22.3996 27.9111 24.0885 26.4889C24.5329 26.0444 25.244 25.7778 25.8662 25.7778C26.4885 25.7778 27.1107 26.0444 27.5551 26.4889C28.3551 27.1111 29.244 27.4667 30.2218 27.5556V25.7778C29.3329 25.7778 29.1551 25.4222 28.7107 25.0667C27.9107 24.4444 26.9329 24.0889 25.8662 24.0889V24.0889Z" fill="#3678DD"/>
<path d="M5.33342 20.4445C5.33342 19.9112 5.77786 19.5556 6.3112 19.5556H28.4445L25.3334 22.3112H25.5112C26.2223 22.3112 26.9334 22.4889 27.4668 22.7556L29.689 20.8001L29.8668 20.6223C30.489 19.9112 30.4001 18.7556 29.689 18.1334C29.3334 17.9556 28.9779 17.7778 28.5334 17.7778H6.3112C4.80009 17.7778 3.64453 18.9334 3.64453 20.4445V23.2889C4.08898 22.8445 4.7112 22.5778 5.33342 22.3112V20.4445V20.4445Z" fill="#3678DD"/>
<path d="M7.91116 16.8889H13.3334V9.95556C13.3334 9.42223 13.0667 8.8889 12.6223 8.53334C11.8223 7.91112 10.6667 8.0889 10.1334 8.8889L6.48893 14.1333C6.13338 14.6667 6.13338 15.3778 6.40004 16C6.66671 16.5333 7.28893 16.8889 7.91116 16.8889V16.8889ZM11.6445 9.95556L11.5556 15.1111H7.91116L11.6445 9.95556Z" fill="#3678DD"/>
<path d="M23.1115 16C23.4671 15.4666 23.4671 14.7555 23.1115 14.2222L17.5115 4.97776C17.156 4.44442 16.6227 4.08887 16.0004 4.08887C15.0227 4.08887 14.2227 4.88887 14.2227 5.86665V16.8889H21.6004C22.2227 16.8889 22.8449 16.5333 23.1115 16ZM15.9115 5.86665L21.6004 15.2H15.9115V5.86665Z" fill="#3678DD"/>
</g>
<defs>
<clipPath id="clip0_80426_80">
<rect width="32" height="32" fill="white"/>
</clipPath>
</defs>
</svg>
