<svg width="32" height="32" viewBox="0 0 32 32" fill="none" xmlns="http://www.w3.org/2000/svg">
<path d="M19.7923 26.6667H8.66699C6.82833 26.6667 5.33366 25.1721 5.33366 23.3334C5.33366 21.4947 6.82833 20.0001 8.66699 20.0001H18.0003C20.5737 20.0001 22.667 17.9067 22.667 15.3334C22.667 12.7601 20.5737 10.6667 18.0003 10.6667H11.519C11.0293 11.6266 10.423 12.5223 9.71366 13.3334H18.0003C19.103 13.3334 20.0003 14.2307 20.0003 15.3334C20.0003 16.4361 19.103 17.3334 18.0003 17.3334H8.66699C5.35899 17.3334 2.66699 20.0254 2.66699 23.3334C2.66699 26.6414 5.35899 29.3334 8.66699 29.3334H21.4577C20.8034 28.5104 20.2447 27.6158 19.7923 26.6667V26.6667ZM6.66699 2.66675C4.46166 2.66675 2.66699 4.46141 2.66699 6.66675C2.66699 10.9174 6.66699 13.3334 6.66699 13.3334C6.66699 13.3334 10.667 10.9161 10.667 6.66675C10.667 4.46141 8.87233 2.66675 6.66699 2.66675ZM6.66699 8.66675C6.40426 8.66666 6.14412 8.61483 5.90142 8.5142C5.65872 8.41358 5.43822 8.26614 5.2525 8.0803C5.06679 7.89445 4.91949 7.67385 4.81903 7.43109C4.71857 7.18832 4.6669 6.92815 4.66699 6.66541C4.66708 6.40268 4.71892 6.14254 4.81954 5.89984C4.92016 5.65714 5.0676 5.43664 5.25345 5.25093C5.43929 5.06521 5.65989 4.91791 5.90265 4.81745C6.14542 4.71699 6.40559 4.66533 6.66833 4.66541C7.19894 4.66559 7.70774 4.87655 8.08282 5.25187C8.45789 5.62719 8.6685 6.13614 8.66833 6.66675C8.66815 7.19736 8.4572 7.70617 8.08187 8.08124C7.70655 8.45631 7.1976 8.66693 6.66699 8.66675V8.66675Z" fill="#85B6FF"/>
<path d="M25.333 18.6667C23.1277 18.6667 21.333 20.4614 21.333 22.6667C21.333 26.9174 25.333 29.3334 25.333 29.3334C25.333 29.3334 29.333 26.9161 29.333 22.6667C29.333 20.4614 27.5383 18.6667 25.333 18.6667ZM25.333 24.6667C25.0703 24.6667 24.8101 24.6148 24.5674 24.5142C24.3247 24.4136 24.1042 24.2661 23.9185 24.0803C23.7328 23.8945 23.5855 23.6739 23.485 23.4311C23.3846 23.1883 23.3329 22.9281 23.333 22.6654C23.3331 22.4027 23.3849 22.1425 23.4856 21.8998C23.5862 21.6571 23.7336 21.4366 23.9195 21.2509C24.1053 21.0652 24.3259 20.9179 24.5687 20.8175C24.8114 20.717 25.0716 20.6653 25.3343 20.6654C25.865 20.6656 26.3738 20.8765 26.7488 21.2519C27.1239 21.6272 27.3345 22.1361 27.3343 22.6667C27.3342 23.1974 27.1232 23.7062 26.7479 24.0812C26.3726 24.4563 25.8636 24.6669 25.333 24.6667V24.6667Z" fill="#85B6FF"/>
</svg>
