<svg width="32" height="32" viewBox="0 0 32 32" fill="none" xmlns="http://www.w3.org/2000/svg">
<path d="M2.66699 9.33341C2.66699 8.62617 2.94794 7.94789 3.44804 7.4478C3.94814 6.9477 4.62641 6.66675 5.33366 6.66675H26.667C27.3742 6.66675 28.0525 6.9477 28.5526 7.4478C29.0527 7.94789 29.3337 8.62617 29.3337 9.33341V22.6667C29.3337 23.374 29.0527 24.0523 28.5526 24.5524C28.0525 25.0525 27.3742 25.3334 26.667 25.3334H5.33366C4.62641 25.3334 3.94814 25.0525 3.44804 24.5524C2.94794 24.0523 2.66699 23.374 2.66699 22.6667V9.33341Z" stroke="#85B6FF" stroke-width="2.66667" stroke-linecap="round" stroke-linejoin="round"/>
<path d="M16 20C18.2091 20 20 18.2091 20 16C20 13.7909 18.2091 12 16 12C13.7909 12 12 13.7909 12 16C12 18.2091 13.7909 20 16 20Z" stroke="#85B6FF" stroke-width="2.66667" stroke-linecap="round" stroke-linejoin="round"/>
<path d="M2.66699 12.0001C4.08148 12.0001 5.43803 11.4382 6.43823 10.438C7.43842 9.43779 8.00033 8.08124 8.00033 6.66675M24.0003 25.3334C24.0003 23.9189 24.5622 22.5624 25.5624 21.5622C26.5626 20.562 27.9192 20.0001 29.3337 20.0001" stroke="#85B6FF" stroke-width="2.66667" stroke-linecap="round" stroke-linejoin="round"/>
</svg>
