<svg width="32" height="32" viewBox="0 0 32 32" fill="none" xmlns="http://www.w3.org/2000/svg">
<path d="M22.568 25.8414L16.832 27.7267C16.2915 27.9042 15.7085 27.9042 15.168 27.7267L9.432 25.8401C8.58384 25.5615 7.81919 25.0744 7.20815 24.4235C6.59712 23.7726 6.15924 22.9788 5.93467 22.1147L4 14.6667L16 16.0001L28 14.6667L26.0653 22.1161C25.8408 22.9801 25.4029 23.774 24.7918 24.4248C24.1808 25.0757 23.4162 25.5628 22.568 25.8414Z" stroke="#85B6FF" stroke-width="2.66667" stroke-linecap="round" stroke-linejoin="round"/>
<path d="M16.0003 4V8M14.667 4H17.3337M16.0003 16V21.3333M8.66299 9.676C8.86098 9.18121 9.20268 8.75709 9.64401 8.45835C10.0853 8.15961 10.6061 7.99996 11.139 8H20.8617C21.3946 7.99996 21.9153 8.15961 22.3566 8.45835C22.798 8.75709 23.1397 9.18121 23.3377 9.676L25.3337 14.6667L16.0003 16L6.66699 14.6667L8.66299 9.676Z" stroke="#85B6FF" stroke-width="2.66667" stroke-linecap="round" stroke-linejoin="round"/>
</svg>
